<svg width="30" height="32" viewBox="0 0 30 32" fill="none" xmlns="http://www.w3.org/2000/svg">
<path fill-rule="evenodd" clip-rule="evenodd" d="M7.1736 4.26453C8.57582 1.98578 11.0711 0 15 0C18.9288 0 21.4241 1.98578 22.8263 4.26453C24.1721 6.45151 24.5898 8.98488 24.5898 10.6667H27.2681C28.6291 10.6667 29.6413 11.8119 29.3496 13.0217L25.1409 30.4763C24.9264 31.366 24.0603 32 23.0594 32H6.94059C5.93964 32 5.07358 31.366 4.85904 30.4763L0.650349 13.0217C0.358632 11.8119 1.37087 10.6667 2.73189 10.6667H5.41016C5.41016 8.98488 5.82785 6.45151 7.1736 4.26453ZM19.1076 6.15972C19.9995 7.6091 20.3276 9.43936 20.3276 10.6667H9.6723C9.6723 9.43936 10.0005 7.6091 10.8923 6.15971C11.7277 4.8021 12.9618 3.87879 15 3.87879C17.0381 3.87879 18.2722 4.8021 19.1076 6.15972ZM15 22.8414C17.3411 22.8414 19.4351 21.8782 20.8296 20.3636L23.5243 22.8159C21.4356 24.9537 18.3906 26.3004 15 26.3004C11.6094 26.3004 8.56438 24.9537 6.47569 22.8159L9.17037 20.3636C10.5649 21.8782 12.6588 22.8414 15 22.8414Z" fill="#F9D262"/>
</svg>
