<svg width="226" height="53" viewBox="0 0 226 53" fill="none" xmlns="http://www.w3.org/2000/svg">
<path fill-rule="evenodd" clip-rule="evenodd" d="M10.8283 7.06313C13.1381 3.28895 17.2484 0 23.7201 0C30.1918 0 34.3022 3.28895 36.6119 7.06312C38.8287 10.6853 39.5167 14.8812 39.5167 17.6667H43.9285C46.1704 17.6667 47.8378 19.5635 47.3573 21.5673L40.4246 50.4764C40.0712 51.95 38.6446 53 36.9958 53H10.4445C8.79565 53 7.36906 51.95 7.01567 50.4764L0.0829762 21.5673C-0.397549 19.5635 1.26983 17.6667 3.51176 17.6667H7.92348C7.92348 14.8812 8.61152 10.6853 10.8283 7.06313ZM30.4863 10.202C31.9554 12.6026 32.496 15.6339 32.496 17.6667H14.9442C14.9442 15.6339 15.4848 12.6026 16.9539 10.202C18.33 7.95347 20.3628 6.42424 23.7201 6.42424C27.0774 6.42424 29.1102 7.95348 30.4863 10.202ZM23.7201 37.831C27.5765 37.831 31.0258 36.2358 33.3228 33.7273L37.7616 37.7889C34.321 41.3296 29.3052 43.5601 23.7201 43.5601C18.135 43.5601 13.1192 41.3296 9.67865 37.7889L14.1174 33.7273C16.4145 36.2358 19.8637 37.831 23.7201 37.831Z" fill="#F9D262"/>
<path d="M75.6955 19.8324C72.8929 19.8324 70.7697 20.8582 69.6232 22.4396V11.8824H63.2537V41.8017H69.6232V30.1332C69.6232 27.0985 71.2368 25.7307 73.5723 25.7307C75.6105 25.7307 77.2666 26.9703 77.2666 29.6203V41.8017H83.6361V28.6799C83.6361 22.9098 79.9843 19.8324 75.6955 19.8324Z" fill="#1F2223"/>
<path d="M103.424 20.4307V22.4396C102.023 20.8154 99.9425 19.8324 97.0974 19.8324C91.5347 19.8324 86.9486 24.7477 86.9486 31.1162C86.9486 37.4848 91.5347 42.4001 97.0974 42.4001C99.9425 42.4001 102.023 41.417 103.424 39.7928V41.8017H109.794V20.4307H103.424ZM98.3713 36.3307C95.4413 36.3307 93.3182 34.3219 93.3182 31.1162C93.3182 27.9106 95.4413 25.9017 98.3713 25.9017C101.301 25.9017 103.424 27.9106 103.424 31.1162C103.424 34.3219 101.301 36.3307 98.3713 36.3307Z" fill="#1F2223"/>
<path d="M127.164 19.8324C124.319 19.8324 122.238 20.8154 120.836 22.4396V11.8824H114.467V41.8017H120.836V39.7928C122.238 41.417 124.319 42.4001 127.164 42.4001C132.726 42.4001 137.312 37.4848 137.312 31.1162C137.312 24.7477 132.726 19.8324 127.164 19.8324ZM125.89 36.3307C122.96 36.3307 120.836 34.3219 120.836 31.1162C120.836 27.9106 122.96 25.9017 125.89 25.9017C128.82 25.9017 130.943 27.9106 130.943 31.1162C130.943 34.3219 128.82 36.3307 125.89 36.3307Z" fill="#1F2223"/>
<path d="M144.108 18.5501C146.189 18.5501 147.93 16.7977 147.93 14.7033C147.93 12.609 146.189 10.8565 144.108 10.8565C142.028 10.8565 140.287 12.609 140.287 14.7033C140.287 16.7977 142.028 18.5501 144.108 18.5501ZM140.924 41.8017H147.293V20.4307H140.924V41.8017Z" fill="#1F2223"/>
<path d="M164.396 26.5856V20.4307H160.022V14.4469L153.653 16.3703V20.4307H150.256V26.5856H153.653V34.1509C153.653 40.1348 156.073 42.6565 164.396 41.8017V35.9888C161.593 36.1598 160.022 35.9888 160.022 34.1509V26.5856H164.396Z" fill="#1F2223"/>
<path d="M182.133 20.4307V32.0993C182.133 35.134 180.519 36.5017 178.184 36.5017C176.146 36.5017 174.489 35.2622 174.489 32.6122V20.4307H168.12V33.5525C168.12 39.3227 171.772 42.4001 176.061 42.4001C178.863 42.4001 180.986 41.3743 182.133 39.7928V41.8017H188.502V20.4307H182.133Z" fill="#1F2223"/>
<path d="M208.588 20.4307V22.4396C207.187 20.8154 205.106 19.8324 202.261 19.8324C196.698 19.8324 192.112 24.7477 192.112 31.1162C192.112 37.4848 196.698 42.4001 202.261 42.4001C205.106 42.4001 207.187 41.417 208.588 39.7928V41.8017H214.958V20.4307H208.588ZM203.535 36.3307C200.605 36.3307 198.482 34.3219 198.482 31.1162C198.482 27.9106 200.605 25.9017 203.535 25.9017C206.465 25.9017 208.588 27.9106 208.588 31.1162C208.588 34.3219 206.465 36.3307 203.535 36.3307Z" fill="#1F2223"/>
<path d="M219.63 41.8017H226V10.6001H219.63V41.8017Z" fill="#1F2223"/>
</svg>
