<svg width="20" height="21" viewBox="0 0 20 21" fill="none" xmlns="http://www.w3.org/2000/svg">
<path fill-rule="evenodd" clip-rule="evenodd" d="M1.5625 5.5C1.5625 4.98223 1.98223 4.5625 2.5 4.5625H17.5C18.0178 4.5625 18.4375 4.98223 18.4375 5.5C18.4375 6.01777 18.0178 6.4375 17.5 6.4375H2.5C1.98223 6.4375 1.5625 6.01777 1.5625 5.5ZM1.5625 10.5C1.5625 9.98223 1.98223 9.5625 2.5 9.5625H17.5C18.0178 9.5625 18.4375 9.98223 18.4375 10.5C18.4375 11.0178 18.0178 11.4375 17.5 11.4375H2.5C1.98223 11.4375 1.5625 11.0178 1.5625 10.5ZM1.5625 15.5C1.5625 14.9822 1.98223 14.5625 2.5 14.5625H17.5C18.0178 14.5625 18.4375 14.9822 18.4375 15.5C18.4375 16.0178 18.0178 16.4375 17.5 16.4375H2.5C1.98223 16.4375 1.5625 16.0178 1.5625 15.5Z" fill="#1E1E1E"/>
</svg>
