<svg width="20" height="21" viewBox="0 0 20 21" fill="none" xmlns="http://www.w3.org/2000/svg">
<path fill-rule="evenodd" clip-rule="evenodd" d="M4.33709 4.83709C4.7032 4.47097 5.2968 4.47097 5.66291 4.83709L10 9.17417L14.3371 4.83709C14.7032 4.47097 15.2968 4.47097 15.6629 4.83709C16.029 5.2032 16.029 5.7968 15.6629 6.16291L11.3258 10.5L15.6629 14.8371C16.029 15.2032 16.029 15.7968 15.6629 16.1629C15.2968 16.529 14.7032 16.529 14.3371 16.1629L10 11.8258L5.66291 16.1629C5.2968 16.529 4.7032 16.529 4.33709 16.1629C3.97097 15.7968 3.97097 15.2032 4.33709 14.8371L8.67417 10.5L4.33709 6.16291C3.97097 5.7968 3.97097 5.2032 4.33709 4.83709Z" fill="#1E1E1E"/>
</svg>
